<svg width="16" height="24" xmlns="http://www.w3.org/2000/svg">
  <title>Layer 1</title>
  <path stroke="null" id="svg_4" d="m13.310139,12.701034l-4.59767,-7.698985c-0.325819,-0.543032 -1.110198,-0.591301 -1.448085,-0.060337l-4.560714,7.747255c-0.362021,0.567167 0.048269,1.436772 0.723288,1.436772l9.14707,0c0.663706,0 1.073996,-0.856784 0.73611,-1.42395l0,-0.000754zm-5.33378,0.120674c-0.325819,0 -0.591301,-0.264728 -0.591301,-0.591301s0.264728,-0.591301 0.591301,-0.591301c0.325819,0 0.591301,0.264728 0.591301,0.591301s-0.264728,0.591301 -0.591301,0.591301zm0.627503,-2.172127c0,0.325819 -0.27755,0.591301 -0.603369,0.591301s-0.603369,-0.264728 -0.603369,-0.591301l0,-3.090002c0,-0.325819 0.27755,-0.591301 0.603369,-0.591301s0.603369,0.264728 0.603369,0.591301l0,3.090002z" fill="#5a7197"/>
  <text font-weight="bold" xml:space="preserve" text-anchor="start" font-family="Arvo, sans-serif" font-size="2.5" id="svg_11" y="17.419918" x="1.5" stroke-opacity="null" stroke-width="0" stroke="#000" fill="#4d729a">NO IMAGE</text>
</svg>